<svg xmlns="http://www.w3.org/2000/svg" xmlns:xlink="http://www.w3.org/1999/xlink" width="10" height="9" viewBox="0 0 10 9"><defs><path id="d8gaa" d="M573.98 32.084a4.61 4.61 0 0 1-1.758-.33 4.226 4.226 0 0 1-1.398-.912 4.165 4.165 0 0 1-.918-1.374 4.446 4.446 0 0 1-.33-1.728c0-.616.11-1.188.33-1.716.22-.528.526-.984.918-1.368a4.275 4.275 0 0 1 1.398-.906c.54-.22 1.126-.33 1.758-.33.632 0 1.22.11 1.764.33.544.22 1.012.522 1.404.906.392.384.7.84.924 1.368.224.528.336 1.1.336 1.716 0 .624-.112 1.2-.336 1.728a4.248 4.248 0 0 1-.924 1.374c-.392.388-.86.692-1.404.912-.544.22-1.132.33-1.764.33zm0-.396c.56 0 1.084-.096 1.572-.288a3.87 3.87 0 0 0 1.272-.804 3.75 3.75 0 0 0 .852-1.236c.208-.48.312-1.012.312-1.596 0-.568-.1-1.092-.3-1.572-.2-.48-.48-.896-.84-1.248a3.933 3.933 0 0 0-1.272-.828c-.488-.2-1.02-.3-1.596-.3-.568 0-1.096.1-1.584.3-.488.2-.91.474-1.266.822a3.693 3.693 0 0 0-.834 1.248 4.06 4.06 0 0 0-.3 1.566c0 .56.1 1.08.3 1.56a3.773 3.773 0 0 0 2.094 2.076c.484.2 1.014.3 1.59.3zm.096-1.164a2.86 2.86 0 0 1-1.95-.756 2.683 2.683 0 0 1-.624-.876 2.757 2.757 0 0 1-.234-1.152c0-.336.056-.672.168-1.008.112-.336.28-.636.504-.9a2.59 2.59 0 0 1 .852-.648c.344-.168.748-.252 1.212-.252.528 0 .998.114 1.41.342.412.228.71.558.894.99l-.792.252a1.3 1.3 0 0 0-.306-.432 1.569 1.569 0 0 0-.396-.264 1.706 1.706 0 0 0-.42-.132 2.307 2.307 0 0 0-.39-.036c-.32 0-.598.062-.834.186a1.825 1.825 0 0 0-.588.48c-.156.196-.274.42-.354.672-.08.252-.12.502-.12.75a2.081 2.081 0 0 0 .636 1.536 1.929 1.929 0 0 0 1.284.54c.304 0 .608-.082.912-.246.304-.164.524-.386.66-.666l.792.228a1.729 1.729 0 0 1-.288.462 2.544 2.544 0 0 1-.504.456c-.2.14-.428.254-.684.342a2.566 2.566 0 0 1-.84.132z"/></defs><g><g transform="translate(-569 -23)"><use fill="#3f3e41" xlink:href="#d8gaa"/></g></g></svg>