<?xml version="1.0" encoding="utf-8"?>
<svg xmlns="http://www.w3.org/2000/svg"
	xmlns:xlink="http://www.w3.org/1999/xlink"
	width="21px" height="21px" viewBox="0 0 21 21">
<path fillRule="evenodd" d="M 15.8 6.36C 15.53 6.03 15.22 5.76 14.89 5.57 14.57 5.38 14.22 5.24 13.85 5.16 13.49 5.08 13.15 5.04 12.84 5.04 12.13 5.04 11.52 5.2 11.01 5.53 10.5 5.85 10.07 6.26 9.74 6.78 9.55 7.06 9.4 7.37 9.27 7.7 9.27 7.7 13.49 7.7 13.49 7.7 13.49 7.7 13.49 9.64 13.49 9.64 13.49 9.64 8.82 9.64 8.82 9.64 8.79 9.92 8.77 10.19 8.77 10.47 8.77 10.68 8.79 10.89 8.81 11.1 8.81 11.1 13.49 11.1 13.49 11.1 13.49 11.1 13.49 13.04 13.49 13.04 13.49 13.04 9.23 13.04 9.23 13.04 9.39 13.49 9.59 13.92 9.85 14.29 10.21 14.79 10.64 15.19 11.15 15.5 11.66 15.8 12.24 15.95 12.9 15.95 13.23 15.95 13.57 15.9 13.91 15.82 14.26 15.73 14.59 15.58 14.91 15.38 15.23 15.18 15.52 14.91 15.78 14.59 16.04 14.27 16.24 13.88 16.4 13.41 16.4 13.41 20.99 16.18 20.99 16.18 20.7 16.94 20.27 17.62 19.68 18.22 19.09 18.82 18.42 19.33 17.67 19.74 16.92 20.15 16.12 20.46 15.27 20.67 14.42 20.88 13.59 20.99 12.78 20.99 11.36 20.99 10.05 20.69 8.85 20.07 7.66 19.46 6.63 18.65 5.78 17.64 4.92 16.63 4.25 15.48 3.77 14.2 3.62 13.82 3.51 13.43 3.41 13.04 3.41 13.04-0 13.04-0 13.04-0 13.04-0 11.1-0 11.1-0 11.1 3.08 11.1 3.08 11.1 3.06 10.83 3.04 10.56 3.04 10.29 3.04 10.07 3.06 9.86 3.07 9.64 3.07 9.64-0 9.64-0 9.64-0 9.64-0 7.7-0 7.7-0 7.7 3.37 7.7 3.37 7.7 3.46 7.32 3.57 6.94 3.71 6.56 4.15 5.34 4.8 4.24 5.66 3.27 6.52 2.29 7.56 1.51 8.78 0.9 10 0.3 11.4 0 12.96 0 14.79 0 16.39 0.41 17.76 1.24 19.12 2.07 20.14 3.16 20.79 4.52 20.79 4.52 16.48 7.61 16.48 7.61 16.31 7.1 16.08 6.69 15.8 6.36Z" fill="rgb(253,91,7)"/></svg>